<?xml version="1.0" standalone="no"?>
<!DOCTYPE svg PUBLIC "-//W3C//DTD SVG 20010904//EN"
 "http://www.w3.org/TR/2001/REC-SVG-20010904/DTD/svg10.dtd">
<svg version="1.0" xmlns="http://www.w3.org/2000/svg"
 width="512.000000pt" height="512.000000pt" viewBox="0 0 512.000000 512.000000"
 preserveAspectRatio="xMidYMid meet">

<g transform="translate(0.000000,512.000000) scale(0.100000,-0.100000)"
fill="#000000" stroke="none">
<path d="M2505 5055 c-16 -15 -25 -35 -25 -56 0 -91 -81 -202 -166 -227 -31
-9 -227 -12 -768 -12 -708 0 -728 -1 -788 -21 -114 -38 -188 -106 -242 -219
l-31 -65 0 -295 0 -295 27 -58 c51 -109 121 -176 232 -221 48 -20 74 -21 496
-26 l445 -5 3 -25 c19 -179 118 -380 256 -515 343 -339 893 -338 1233 1 139
139 236 335 255 514 l3 25 415 3 c305 2 427 -1 460 -10 58 -16 141 -96 158
-154 16 -56 17 -492 0 -546 -15 -49 -76 -120 -125 -144 -36 -18 -80 -19 -798
-24 l-760 -5 -67 -32 c-90 -42 -150 -100 -193 -186 -19 -38 -35 -76 -35 -83 0
-12 -196 -14 -1220 -14 l-1221 0 -24 -25 -25 -24 0 -1111 0 -1111 25 -24 24
-25 2511 0 2511 0 24 25 25 24 0 1111 0 1111 -25 24 -24 25 -1206 0 c-663 0
-1205 2 -1205 5 0 33 77 115 129 138 19 9 232 13 787 17 l760 5 76 37 c91 45
147 103 191 196 l32 67 0 296 0 295 -37 76 c-45 91 -103 147 -196 191 l-67 32
-449 5 -450 5 -12 70 c-58 336 -309 606 -649 698 -107 29 -316 30 -419 3 -330
-88 -577 -336 -650 -653 -9 -37 -17 -79 -18 -93 l-3 -25 -435 0 c-427 0 -436
0 -475 22 -52 28 -89 68 -114 123 -19 41 -21 65 -21 286 0 193 3 250 15 285
17 48 61 98 115 132 35 22 35 22 801 27 l765 5 76 37 c129 64 212 182 225 321
5 61 4 67 -20 91 -34 34 -79 34 -112 1z m187 -709 c102 -20 175 -49 260 -105
137 -89 243 -228 295 -386 23 -71 26 -96 26 -215 1 -118 -3 -145 -25 -212 -39
-119 -92 -204 -182 -294 -90 -90 -175 -142 -294 -182 -67 -23 -94 -26 -212
-26 -118 0 -145 3 -212 26 -119 40 -204 92 -294 182 -90 90 -143 175 -182 294
-22 67 -26 94 -25 212 0 119 3 144 26 215 15 44 43 109 64 145 47 80 178 213
256 259 152 89 328 120 499 87z m2268 -3146 l0 -1000 -2400 0 -2400 0 0 1000
0 1000 2400 0 2400 0 0 -1000z"/>
<path d="M2430 4105 c-161 -35 -327 -158 -440 -327 -91 -135 -91 -141 0 -276
256 -383 692 -452 1004 -161 101 94 206 248 206 301 0 43 -99 189 -189 278
-167 166 -369 230 -581 185z m235 -160 c125 -33 247 -125 329 -250 l37 -55
-38 -57 c-107 -161 -274 -263 -433 -263 -159 0 -326 102 -433 263 l-38 57 37
55 c134 203 345 300 539 250z"/>
<path d="M2480 3867 c-49 -16 -133 -102 -148 -153 -28 -96 -4 -182 68 -247
105 -94 242 -89 333 13 93 103 90 228 -8 325 -70 71 -152 91 -245 62z m135
-172 c16 -15 25 -36 25 -55 0 -19 -9 -40 -25 -55 -49 -50 -135 -15 -135 55 0
41 39 80 80 80 19 0 40 -9 55 -25z"/>
<path d="M425 1935 c-24 -23 -25 -28 -25 -175 0 -147 1 -152 25 -175 23 -24
28 -25 175 -25 147 0 152 1 175 25 24 23 25 28 25 175 0 147 -1 152 -25 175
-23 24 -28 25 -175 25 -147 0 -152 -1 -175 -25z m215 -175 l0 -40 -40 0 -40 0
0 40 0 40 40 0 40 0 0 -40z"/>
<path d="M985 1935 c-24 -23 -25 -28 -25 -175 0 -147 1 -152 25 -175 23 -24
28 -25 175 -25 206 0 200 -6 200 200 0 147 -1 152 -25 175 -23 24 -28 25 -175
25 -147 0 -152 -1 -175 -25z m215 -175 l0 -40 -40 0 -40 0 0 40 0 40 40 0 40
0 0 -40z"/>
<path d="M1545 1935 c-24 -23 -25 -28 -25 -175 0 -147 1 -152 25 -175 23 -24
28 -25 175 -25 147 0 152 1 175 25 24 23 25 28 25 175 0 147 -1 152 -25 175
-23 24 -28 25 -175 25 -147 0 -152 -1 -175 -25z m215 -175 l0 -40 -40 0 -40 0
0 40 0 40 40 0 40 0 0 -40z"/>
<path d="M2105 1935 c-24 -23 -25 -28 -25 -175 0 -147 1 -152 25 -175 23 -24
28 -25 175 -25 147 0 152 1 175 25 24 23 25 28 25 175 0 147 -1 152 -25 175
-23 24 -28 25 -175 25 -147 0 -152 -1 -175 -25z m215 -175 l0 -40 -40 0 -40 0
0 40 0 40 40 0 40 0 0 -40z"/>
<path d="M2665 1935 c-24 -23 -25 -28 -25 -175 0 -147 1 -152 25 -175 23 -24
28 -25 175 -25 147 0 152 1 175 25 24 23 25 28 25 175 0 147 -1 152 -25 175
-23 24 -28 25 -175 25 -147 0 -152 -1 -175 -25z m215 -175 l0 -40 -40 0 -40 0
0 40 0 40 40 0 40 0 0 -40z"/>
<path d="M3225 1935 c-24 -23 -25 -28 -25 -175 0 -147 1 -152 25 -175 23 -24
28 -25 175 -25 147 0 152 1 175 25 24 23 25 28 25 175 0 147 -1 152 -25 175
-23 24 -28 25 -175 25 -147 0 -152 -1 -175 -25z m215 -175 l0 -40 -40 0 -40 0
0 40 0 40 40 0 40 0 0 -40z"/>
<path d="M3785 1935 c-24 -23 -25 -28 -25 -175 0 -147 1 -152 25 -175 23 -24
28 -25 175 -25 147 0 152 1 175 25 24 23 25 28 25 175 0 147 -1 152 -25 175
-23 24 -28 25 -175 25 -147 0 -152 -1 -175 -25z m215 -175 l0 -40 -40 0 -40 0
0 40 0 40 40 0 40 0 0 -40z"/>
<path d="M4345 1935 l-25 -24 0 -431 0 -431 25 -24 c23 -24 28 -25 175 -25
147 0 152 1 175 25 l25 24 0 431 0 431 -25 24 c-23 24 -28 25 -175 25 -147 0
-152 -1 -175 -25z m215 -455 l0 -320 -40 0 -40 0 0 320 0 320 40 0 40 0 0
-320z"/>
<path d="M425 1375 c-24 -23 -25 -28 -25 -175 0 -147 1 -152 25 -175 l24 -25
431 0 431 0 24 25 c24 23 25 28 25 175 0 147 -1 152 -25 175 l-24 25 -431 0
-431 0 -24 -25z m775 -175 l0 -40 -320 0 -320 0 0 40 0 40 320 0 320 0 0 -40z"/>
<path d="M1545 1375 c-24 -23 -25 -28 -25 -175 0 -147 1 -152 25 -175 23 -24
28 -25 175 -25 206 0 200 -6 200 200 0 147 -1 152 -25 175 -23 24 -28 25 -175
25 -147 0 -152 -1 -175 -25z m215 -175 l0 -40 -40 0 -40 0 0 40 0 40 40 0 40
0 0 -40z"/>
<path d="M2105 1375 c-24 -23 -25 -28 -25 -175 0 -147 1 -152 25 -175 23 -24
28 -25 175 -25 206 0 200 -6 200 200 0 147 -1 152 -25 175 -23 24 -28 25 -175
25 -147 0 -152 -1 -175 -25z m215 -175 l0 -40 -40 0 -40 0 0 40 0 40 40 0 40
0 0 -40z"/>
<path d="M2665 1375 c-24 -23 -25 -28 -25 -175 0 -147 1 -152 25 -175 23 -24
28 -25 175 -25 147 0 152 1 175 25 24 23 25 28 25 175 0 147 -1 152 -25 175
-23 24 -28 25 -175 25 -147 0 -152 -1 -175 -25z m215 -175 l0 -40 -40 0 -40 0
0 40 0 40 40 0 40 0 0 -40z"/>
<path d="M3225 1375 c-24 -23 -25 -28 -25 -175 0 -147 1 -152 25 -175 23 -24
28 -25 175 -25 147 0 152 1 175 25 24 23 25 28 25 175 0 147 -1 152 -25 175
-23 24 -28 25 -175 25 -147 0 -152 -1 -175 -25z m215 -175 l0 -40 -40 0 -40 0
0 40 0 40 40 0 40 0 0 -40z"/>
<path d="M3785 1375 c-24 -23 -25 -28 -25 -175 0 -147 1 -152 25 -175 23 -24
28 -25 175 -25 147 0 152 1 175 25 24 23 25 28 25 175 0 147 -1 152 -25 175
-23 24 -28 25 -175 25 -147 0 -152 -1 -175 -25z m215 -175 l0 -40 -40 0 -40 0
0 40 0 40 40 0 40 0 0 -40z"/>
<path d="M425 815 c-24 -23 -25 -28 -25 -175 0 -147 1 -152 25 -175 23 -24 28
-25 175 -25 147 0 152 1 175 25 24 23 25 28 25 175 0 147 -1 152 -25 175 -23
24 -28 25 -175 25 -147 0 -152 -1 -175 -25z m215 -175 l0 -40 -40 0 -40 0 0
40 0 40 40 0 40 0 0 -40z"/>
<path d="M985 815 c-24 -23 -25 -28 -25 -175 0 -147 1 -152 25 -175 23 -24 28
-25 175 -25 147 0 152 1 175 25 24 23 25 28 25 175 0 147 -1 152 -25 175 -23
24 -28 25 -175 25 -147 0 -152 -1 -175 -25z m215 -175 l0 -40 -40 0 -40 0 0
40 0 40 40 0 40 0 0 -40z"/>
<path d="M1545 815 c-24 -23 -25 -28 -25 -175 0 -147 1 -152 25 -175 l24 -25
991 0 991 0 24 25 c24 23 25 28 25 175 0 147 -1 152 -25 175 l-24 25 -991 0
-991 0 -24 -25z m1895 -175 l0 -40 -880 0 -880 0 0 40 0 40 880 0 880 0 0 -40z"/>
<path d="M3785 815 c-24 -23 -25 -28 -25 -175 0 -147 1 -152 25 -175 23 -24
28 -25 175 -25 147 0 152 1 175 25 24 23 25 28 25 175 0 147 -1 152 -25 175
-23 24 -28 25 -175 25 -147 0 -152 -1 -175 -25z m215 -175 l0 -40 -40 0 -40 0
0 40 0 40 40 0 40 0 0 -40z"/>
<path d="M4345 815 c-24 -23 -25 -28 -25 -175 0 -147 1 -152 25 -175 23 -24
28 -25 175 -25 147 0 152 1 175 25 24 23 25 28 25 175 0 147 -1 152 -25 175
-23 24 -28 25 -175 25 -147 0 -152 -1 -175 -25z m215 -175 l0 -40 -40 0 -40 0
0 40 0 40 40 0 40 0 0 -40z"/>
</g>
</svg>
