<?xml version="1.0" standalone="no"?>
<!DOCTYPE svg PUBLIC "-//W3C//DTD SVG 20010904//EN"
 "http://www.w3.org/TR/2001/REC-SVG-20010904/DTD/svg10.dtd">
<svg version="1.0" xmlns="http://www.w3.org/2000/svg"
 width="5787.000000pt" height="2476.000000pt" viewBox="0 0 5787.000000 2476.000000"
 preserveAspectRatio="xMidYMid meet">

<g transform="translate(0.000000,2476.000000) scale(0.100000,-0.100000)"
fill="#000000" stroke="none">
<path d="M9405 15819 c-229 -34 -403 -190 -460 -415 -14 -54 -15 -477 -12
-3870 l3 -3809 21 -110 c84 -444 249 -805 507 -1112 41 -48 941 -954 2000
-2013 l1926 -1925 0 6633 0 6632 -1962 -1 c-1080 -1 -1990 -5 -2023 -10z"/>
<path d="M41535 10799 c-1314 -74 -2377 -510 -3161 -1296 -628 -630 -1060
-1472 -1274 -2481 -97 -459 -146 -913 -157 -1462 -28 -1451 291 -2705 928
-3645 415 -612 985 -1102 1652 -1420 544 -260 1102 -402 1862 -477 88 -8 885
-12 2973 -15 l2852 -4 0 772 0 772 -2150 -7 c-1951 -7 -2150 -6 -2150 8 0 14
16 16 108 16 129 0 343 15 507 36 1041 130 1875 590 2445 1349 468 623 738
1404 832 2400 18 191 18 972 0 1155 -107 1097 -449 1975 -1057 2710 -97 117
-379 400 -500 501 -640 536 -1436 881 -2355 1023 -429 66 -919 90 -1355 65z
m819 -1608 c476 -74 886 -255 1236 -546 102 -85 292 -282 371 -385 462 -597
719 -1383 789 -2408 13 -197 13 -755 0 -954 -71 -1063 -344 -1884 -824 -2481
-429 -534 -1029 -851 -1739 -918 -162 -15 -583 -6 -723 15 -313 47 -562 124
-815 251 -910 456 -1472 1460 -1613 2880 -39 386 -45 917 -16 1290 116 1475
669 2513 1594 2996 220 114 460 194 726 243 216 39 298 45 600 41 219 -2 303
-7 414 -24z"/>
<path d="M18550 9890 l0 -770 1565 0 1565 0 0 -4560 0 -4560 995 0 995 0 0
4560 0 4560 1555 0 1555 0 0 770 0 770 -4115 0 -4115 0 0 -770z"/>
<path d="M29519 10528 c-22 -73 -65 -209 -94 -303 -29 -93 -95 -303 -145 -465
-106 -342 -133 -431 -269 -865 -55 -176 -149 -480 -210 -675 -60 -195 -225
-726 -366 -1180 -141 -454 -276 -888 -300 -965 -24 -77 -190 -612 -370 -1190
-179 -577 -364 -1174 -411 -1325 -47 -151 -98 -315 -114 -365 -16 -49 -162
-520 -325 -1045 -163 -525 -339 -1090 -390 -1255 -51 -165 -123 -394 -159
-510 -35 -116 -76 -246 -90 -290 -14 -44 -26 -83 -26 -87 0 -5 447 -8 993 -8
l992 0 22 78 c379 1331 696 2444 704 2470 l11 32 2276 0 2277 0 183 -643 c100
-353 265 -932 366 -1287 l184 -645 1059 -3 1060 -2 -114 367 c-62 203 -149
483 -192 623 -79 254 -157 509 -441 1425 -82 264 -228 737 -325 1050 -269 868
-343 1107 -390 1260 -47 149 -331 1067 -760 2455 -80 261 -188 610 -240 775
-51 165 -110 354 -130 420 -20 66 -56 183 -80 260 -43 137 -279 900 -496 1605
-61 195 -115 370 -120 388 l-11 32 -1758 0 -1759 0 -42 -132z m1864 -410 c58
-205 279 -980 491 -1723 211 -742 572 -2006 800 -2808 229 -802 416 -1460 416
-1463 0 -2 -826 -4 -1835 -4 -1009 0 -1835 3 -1835 6 0 5 176 619 545 1904 62
217 179 622 259 900 79 278 202 703 271 945 70 242 216 753 326 1135 338 1175
421 1465 426 1473 18 31 38 -22 136 -365z"/>
<path d="M51047 10653 c-3 -5 -33 -98 -67 -208 -235 -757 -359 -1156 -505
-1625 -91 -294 -193 -623 -226 -730 -33 -107 -73 -235 -89 -285 -16 -49 -113
-360 -215 -690 -103 -330 -226 -728 -275 -885 -49 -157 -120 -386 -158 -510
-39 -124 -194 -623 -345 -1110 -151 -487 -296 -952 -322 -1035 -91 -294 -237
-762 -280 -900 -211 -673 -825 -2656 -825 -2665 0 -7 308 -9 992 -8 l991 3
366 1285 367 1285 2278 0 2279 0 273 -960 c150 -528 315 -1107 366 -1287 l93
-328 1058 0 c581 0 1057 3 1057 6 0 3 -16 56 -35 118 -18 61 -143 462 -275
891 -133 429 -262 845 -286 925 -25 80 -75 240 -110 355 -122 392 -235 759
-301 970 -36 116 -74 239 -85 275 -41 133 -853 2759 -1208 3905 -133 429 -269
868 -302 975 -33 107 -188 609 -345 1115 -157 506 -299 966 -316 1023 l-30
102 -1758 0 c-967 0 -1760 -3 -1762 -7z m1739 -243 c12 -41 193 -676 403
-1410 209 -734 567 -1992 796 -2795 576 -2021 585 -2052 585 -2069 0 -14 -181
-16 -1830 -16 -1502 0 -1830 2 -1830 13 0 7 27 105 59 218 33 112 148 512 256
889 108 377 234 816 280 975 46 160 172 598 280 975 109 377 312 1083 451
1570 140 487 309 1075 376 1308 95 332 124 422 136 420 10 -2 24 -32 38 -78z"/>
</g>
</svg>
